# xmcd CD database file
#
# Track frame offsets:
#	150
#	15270
#	30065
#	54597
#	70840
#	88195
#	105090
#	123187
#	136820
#	153482
#	168660
#	196880
#	210947
#	224820
#	240777
#
# Disc length: 3385 seconds
#
# Revision: 3
# Processed by: cddbd v1.5.2PL0 Copyright (c) Steve Scherf et al.
# Submitted via: CDex 1.51
#
DISCID=b50d370f
DTITLE=Several - Boxes Hits of the Seventies
DYEAR=1998
DGENRE=Pop
TTITLE0=New Seekers - I'd Like To Teach The World
TTITLE1=Dragon - Are You Old Enough
TTITLE2=Sailor - Girls, Girls, Girls
TTITLE3=Mi-Sex - Computer Games
TTITLE4=Gloria Gaynor - Never Can Say Goodbye
TTITLE5=Carl Douglas - Kung Fu Fighting
TTITLE6=Pussyfoot - Way You Do It
TTITLE7=Ellen Foley - We Belong To The Night
TTITLE8=Ritchie Family - Best Disco In Town
TTITLE9=Bonnie Tyler - It's A Heartache
TTITLE10=La Belle - Lady Marmalade
TTITLE11=Santa Esmeralda - Don't Let Me Be Misunderstood
TTITLE12=Eruption - I Can't Stand The Rain
TTITLE13=Chicago - If You Leave Me Now
TTITLE14=First Class - Beach Baby
EXTD=CD 2 YEAR: 1998
EXTT0=
EXTT1=
EXTT2=
EXTT3=
EXTT4=
EXTT5=
EXTT6=
EXTT7=
EXTT8=
EXTT9=
EXTT10=
EXTT11=
EXTT12=
EXTT13=
EXTT14=
PLAYORDER=
